<svg width="23" height="20" viewBox="0 0 23 20" fill="none" xmlns="http://www.w3.org/2000/svg">
<path d="M22.041 6.66657H21.0827V3.80946C21.0827 3.28348 20.6537 2.85711 20.1244 2.85711H11.8968L9.30259 0.278925C9.12286 0.100311 8.87913 0 8.62498 0H0.958727C0.429484 0 0.000456932 0.426379 0.000456932 0.952354V19.0209C-0.000800817 19.063 0.000501852 19.1048 0.00481413 19.146C0.00683551 19.165 0.00944085 19.1843 0.0125852 19.2031C0.0667583 19.5723 0.311256 19.8236 0.609387 19.9349C0.614014 19.9367 0.61873 19.9384 0.623402 19.9401C0.635081 19.9443 0.646625 19.9486 0.658439 19.9523C0.704931 19.9675 0.753175 19.979 0.802856 19.987C0.802856 19.987 0.806719 19.9876 0.808695 19.9879C0.828954 19.991 0.849482 19.9935 0.870235 19.9954C0.878276 19.9962 0.886271 19.997 0.894312 19.9976C0.900107 19.998 0.905991 19.9981 0.911786 19.9984C0.938109 19.9998 0.964431 20.0003 0.990754 19.9998H18.2079C18.6203 19.9998 18.9865 19.7375 19.117 19.3486L22.9501 7.92017C23.1569 7.30339 22.695 6.66657 22.041 6.66657ZM8.22806 1.90471L10.8223 4.48289C11.002 4.6615 11.2457 4.76181 11.4999 4.76181H19.1662V6.66657H11.979H4.7919C4.3794 6.66657 4.01321 6.92888 3.88277 7.31776L1.917 13.1786V1.90471H8.22806Z" fill="#878787"/>
</svg>
